<svg xmlns="http://www.w3.org/2000/svg" enable-background="new 0 0 24 24" viewBox="0 0 24 24"><path fill="#6563ff" d="M20.3,12.7c-0.3-0.4-0.3-0.9,0-1.3l1.3-1.4c0.3-0.3,0.3-0.8,0.1-1.2l-2-3.5c-0.2-0.4-0.6-0.6-1.1-0.5l-1.9,0.4c-0.5,0.1-1-0.2-1.1-0.7l-0.6-1.8C14.8,2.3,14.4,2,14,2h-4C9.6,2,9.2,2.3,9.1,2.7L8.4,4.5C8.3,5,7.8,5.3,7.3,5.2L5.4,4.8C5,4.7,4.6,4.9,4.3,5.3l-2,3.5C2.1,9.1,2.2,9.6,2.5,9.9l1.3,1.4c0.3,0.4,0.3,0.9,0,1.3l-1.3,1.4c-0.3,0.3-0.3,0.8-0.1,1.2l2,3.5c0.2,0.4,0.6,0.6,1.1,0.5l1.9-0.4c0.5-0.1,1,0.2,1.1,0.7l0.6,1.8C9.2,21.7,9.6,22,10,22h4c0.4,0,0.8-0.3,0.9-0.7l0.6-1.8c0.2-0.5,0.7-0.8,1.1-0.7l1.9,0.4c0.4,0.1,0.9-0.1,1.1-0.5l2-3.5c0.2-0.4,0.2-0.8-0.1-1.2L20.3,12.7z M12,15c-1.7,0-3-1.3-3-3s1.3-3,3-3s3,1.3,3,3S13.7,15,12,15z"/></svg>