<?xml version="1.0" encoding="utf-8"?>
<svg xmlns="http://www.w3.org/2000/svg" xmlns:xlink="http://www.w3.org/1999/xlink" version="1.1" id="Слой_1" x="0px" y="0px" viewBox="0 0 2000 2000" xml:space="preserve">
<style type="text/css">
	.st0{fill:#33D190;stroke:#33D190;stroke-width:35.1913;stroke-miterlimit:10;}
</style>
<path class="st0" d="M1689.3,243.1h-175.1c0,284.6-230.7,515.3-515.3,515.3S483.7,527.7,483.7,243.1h-173c0,0.3,0,0.7,0,1  c0,380.8,308.6,689.4,689.4,689.4s689.4-308.6,689.4-689.4C1689.3,243.8,1689.3,243.4,1689.3,243.1z"/>
<g>
	<path class="st0" d="M1689.3,1267.6h-175.1c0,284.6-230.7,515.3-515.3,515.3s-515.3-230.7-515.3-515.3h-173c0,0.3,0,0.7,0,1   c0,380.8,308.6,689.4,689.4,689.4s689.4-308.6,689.4-689.4C1689.3,1268.3,1689.3,1267.9,1689.3,1267.6z"/>
</g>
<rect x="1514.2" y="243.1" class="st0" width="175.1" height="1024.6"/>
<circle class="st0" cx="819.9" cy="166.7" r="124.7"/>
<circle class="st0" cx="1178" cy="166.7" r="124.7"/>
</svg>